<?xml version="1.0" encoding="UTF-8"?>
<svg version="1.1" xmlns="http://www.w3.org/2000/svg" width="256" height="256">
<path d="M0 0 C5.24649842 3.63219121 7.50165894 7.15295066 9.875 13 C10.18179688 13.69867188 10.48859375 14.39734375 10.8046875 15.1171875 C12.92790591 20.14087392 13.77323827 23.6802852 12 29 C12.91524887 31.92879637 13.66437348 32.82286851 16.4050293 34.26928711 C19.61314003 36.40893308 20.39161337 38.16825474 21.89453125 41.69140625 C22.37470703 42.80064453 22.85488281 43.90988281 23.34960938 45.05273438 C24.07374023 46.79006836 24.07374023 46.79006836 24.8125 48.5625 C25.31458984 49.72458984 25.81667969 50.88667969 26.33398438 52.08398438 C30 60.65797194 30 60.65797194 30 63 C30.79069382 63.06850662 31.58138763 63.13701324 32.39604187 63.20759583 C39.85674051 63.85626342 47.31621706 64.51707692 54.77463055 65.19147205 C58.60888542 65.53773825 62.44343612 65.87933523 66.27905273 66.21020508 C69.98240754 66.52983991 73.68446935 66.86181291 77.38596535 67.20227623 C78.7965182 67.32984788 80.20747716 67.45301039 81.61881065 67.57163429 C83.59936035 67.73886912 85.57842533 67.9234116 87.55737305 68.10864258 C88.68322311 68.2085701 89.80907318 68.30849762 90.96903992 68.41145325 C95.22900448 69.23864603 97.95620348 70.95620348 101 74 C101.37109375 75.98828125 101.37109375 75.98828125 101.4375 78.3125 C101.47746094 79.07175781 101.51742187 79.83101563 101.55859375 80.61328125 C100.72734357 84.16498655 98.68884763 85.58040099 96 88 C94.9434066 89.00320482 93.88880654 90.00851215 92.8359375 91.015625 C86.68185001 96.78641293 80.45430523 102.33186228 73.8671875 107.609375 C68.02397591 112.48137158 62.47604294 117.71992834 57 123 C56.06115967 123.62124756 55.12231934 124.24249512 54.1550293 124.88256836 C51.56167894 128.63406838 51.85423445 129.41466599 52.62573242 133.76489258 C53.17307811 136.14834128 53.75187719 138.52470166 54.35546875 140.89453125 C54.80721728 142.82198601 55.25895804 144.74944263 55.71024799 146.67700481 C56.35013411 149.37696301 57.01672829 152.07005957 57.6829834 154.76361084 C58.83969673 159.46113199 59.95675413 164.1681979 61.07014465 168.87614441 C61.66508874 171.37982798 62.27114536 173.88090387 62.88969421 176.37886047 C64.33798149 182.37545523 65.59220244 187.82481695 65 194 C62.62899986 197.27755902 61.07802591 198.7010446 57.17138672 199.78442383 C53.3860603 200.04173278 51.70101123 199.29951915 48.3828125 197.51171875 C47.33770508 196.95274902 46.29259766 196.3937793 45.21582031 195.81787109 C40.05004038 192.89770731 34.94362586 189.89816803 29.875 186.8125 C28.79766602 186.16410156 27.72033203 185.51570312 26.61035156 184.84765625 C21.55658282 181.79949416 16.529687 178.71820533 11.5546875 175.54296875 C10.73629395 175.02565186 9.91790039 174.50833496 9.07470703 173.9753418 C7.56478733 173.01709303 6.06259034 172.04652516 4.56982422 171.06176758 C0.87644102 168.62915416 0.87644102 168.62915416 -3.390625 168.21044922 C-6.31895611 169.09651048 -8.65410613 170.30876962 -11.296875 171.8515625 C-12.32651367 172.44888184 -13.35615234 173.04620117 -14.41699219 173.66162109 C-15.51688477 174.30953613 -16.61677734 174.95745117 -17.75 175.625 C-18.88856445 176.28709473 -20.02712891 176.94918945 -21.20019531 177.63134766 C-27.19334763 181.12305088 -33.1436509 184.68077064 -39.0625 188.296875 C-40.74714355 189.32240479 -40.74714355 189.32240479 -42.46582031 190.36865234 C-44.61668261 191.68264181 -46.76211434 193.00557201 -48.90136719 194.33837891 C-50.36558105 195.23435791 -50.36558105 195.23435791 -51.859375 196.1484375 C-52.70983398 196.67614746 -53.56029297 197.20385742 -54.43652344 197.74755859 C-57.35174354 199.17185184 -59.77190269 199.72707208 -63 200 C-66.97472063 198.47126129 -68.61853665 197.57219503 -71 194 C-71.31201798 188.57686418 -70.75344071 183.86662053 -69.57421875 178.54296875 C-69.42596146 177.87332596 -69.27770416 177.20368317 -69.12495422 176.51374817 C-68.81228642 175.11374992 -68.49528178 173.71471359 -68.17407227 172.31665039 C-67.68539419 170.17828538 -67.21801472 168.03597216 -66.75195312 165.89257812 C-66.44397658 164.52575528 -66.13477512 163.15920774 -65.82421875 161.79296875 C-65.54666748 160.5608667 -65.26911621 159.32876465 -64.9831543 158.05932617 C-64.03960184 155.12323087 -63.48412664 153.76806881 -61 152 C-60.34 152 -59.68 152 -59 152 C-58.95758277 149.66705225 -58.95907063 147.33297433 -59 145 C-59.33 144.67 -59.66 144.34 -60 144 C-60.21909812 140.56746271 -60.33194279 137.92757845 -59.1640625 134.6640625 C-58.19815959 131.85496871 -57.71168811 129.9718303 -58 127 C-61.12917044 122.97592285 -64.98094661 120.07585963 -69 117 C-70.28112277 115.88673147 -71.55327915 114.76298296 -72.8125 113.625 C-75.26843638 111.48612098 -77.7403719 109.36668065 -80.21875 107.25390625 C-87.59650973 100.96164978 -94.92661817 94.63632735 -102 88 C-103.37285156 86.7625 -103.37285156 86.7625 -104.7734375 85.5 C-107.14510616 82.83707379 -107.66546011 81.91997439 -107.5625 78.4375 C-107.36415182 75.59450936 -107.05447174 74.10116181 -105.6875 71.5625 C-98.0543012 67.12459372 -87.29371474 67.44163918 -78.67578125 66.7109375 C-77.44836716 66.60278717 -76.22095306 66.49463684 -74.9563446 66.38320923 C-71.07546386 66.04235271 -67.19401381 65.70856194 -63.3125 65.375 C-60.66462112 65.14427398 -58.01688714 64.91193162 -55.36914062 64.6796875 C-48.91321882 64.11442638 -42.45681597 63.55494902 -36 63 C-35.40215698 61.12586426 -35.40215698 61.12586426 -34.79223633 59.21386719 C-31.77062808 50.16283369 -27.85905141 41.43729174 -24.13110352 32.66064453 C-23.16694185 30.38272496 -22.20992733 28.10176731 -21.26000977 25.81787109 C-19.88059824 22.50185436 -18.47993427 19.19556245 -17.07421875 15.890625 C-16.65524826 14.87284973 -16.23627777 13.85507446 -15.80461121 12.80645752 C-12.77214143 5.77338144 -8.964676 -1.86764083 0 0 Z " fill="#FDDA63" transform="translate(131,7)"/>
<path d="M0 0 C5.24649842 3.63219121 7.50165894 7.15295066 9.875 13 C10.18179688 13.69867188 10.48859375 14.39734375 10.8046875 15.1171875 C12.36380519 18.80617133 13.65827373 21.94177638 13 26 C11.78515625 28.5859375 11.78515625 28.5859375 10.0625 31.375 C9.41539062 32.44363281 8.76828125 33.51226562 8.1015625 34.61328125 C6.74477154 36.79978267 5.38556867 38.98479013 4.0234375 41.16796875 C-22.74027795 84.72165551 -41.30200683 133.61438325 -50 184 C-38.65078862 177.80453678 -27.48374548 171.36572207 -16.42578125 164.6640625 C-15.67119629 164.21321289 -14.91661133 163.76236328 -14.13916016 163.29785156 C-12.76861653 162.46632795 -11.41222221 161.61073331 -10.07568359 160.72558594 C-7.29154183 158.9457484 -5.53895781 157.9650137 -2.19433594 158.18212891 C1.46798498 159.11982189 4.15703312 160.56218549 7.40234375 162.5 C7.99729645 162.851763 8.59224915 163.203526 9.20523071 163.56594849 C11.12141314 164.70178428 13.0294055 165.85063917 14.9375 167 C16.25528739 167.78451609 17.57356718 168.56820564 18.89233398 169.35107422 C22.6015651 171.55635764 26.3013606 173.77700005 30 176 C31.6065524 176.96130264 33.2132803 177.92231217 34.8203125 178.8828125 C37.07298626 180.23070341 39.32128354 181.58480901 41.56640625 182.9453125 C46.67407241 186.02549547 51.84416524 189.00148195 57 192 C56.82460693 191.22325928 56.64921387 190.44651855 56.46850586 189.64624023 C56.21979736 188.54481689 55.97108887 187.44339355 55.71484375 186.30859375 C55.43455322 185.06787109 55.1542627 183.82714844 54.86547852 182.54882812 C54.24098191 179.78349146 53.61793225 177.01783378 52.99584961 174.25195312 C51.50772127 167.64090591 50.01293039 161.03182708 48.47612 154.43190002 C47.82381116 151.62873933 47.17699467 148.82432351 46.5305481 146.01980591 C46.2206877 144.68264019 45.90812331 143.34609794 45.59274292 142.01022339 C45.14993444 140.13344093 44.71735842 138.25425331 44.28515625 136.375 C44.03644775 135.31023437 43.78773926 134.24546875 43.53149414 133.1484375 C42.94530109 129.67597743 42.7773856 126.51499193 43 123 C45.01953125 120.4453125 45.01953125 120.4453125 47.8125 118.125 C48.31096436 117.70065674 48.80942871 117.27631348 49.32299805 116.83911133 C50.86445317 115.53625804 52.42728401 114.26485883 54 113 C54.886875 112.27941406 55.77375 111.55882813 56.6875 110.81640625 C58.47302068 109.36832772 60.26087252 107.92311987 62.05078125 106.48046875 C66.10289035 103.07240348 69.93554576 99.45001351 73.78369141 95.81518555 C78.26691775 91.60635396 82.91261451 87.74623894 87.79296875 84 C90.15295666 81.86139149 91.42518223 79.74598087 93 77 C91.31245605 76.92652344 91.31245605 76.92652344 89.59082031 76.8515625 C78.16644219 76.32092619 66.81218795 75.41770456 55.43408203 74.27050781 C52.71040154 73.99600918 49.98613855 73.72798988 47.26171875 73.4609375 C45.50256783 73.28682509 43.74345183 73.11235936 41.984375 72.9375 C41.18328308 72.85830322 40.38219116 72.77910645 39.55682373 72.69750977 C38.06276036 72.5463708 36.5692964 72.38913751 35.07662964 72.22477722 C33.08719405 72.009438 31.09410041 71.82874352 29.10107422 71.6496582 C26 71 26 71 24.41162109 69.56323242 C24.07727051 68.93779541 23.74291992 68.3123584 23.3984375 67.66796875 C22.80820801 66.58394775 22.80820801 66.58394775 22.20605469 65.47802734 C21.80805664 64.66027832 21.41005859 63.8425293 21 63 C20.55817383 62.09846191 20.11634766 61.19692383 19.66113281 60.26806641 C18.26128581 57.30447572 16.93575281 54.31646869 15.625 51.3125 C15.16222656 50.29349609 14.69945312 49.27449219 14.22265625 48.22460938 C13.57490234 46.74637695 13.57490234 46.74637695 12.9140625 45.23828125 C12.5217041 44.35180908 12.1293457 43.46533691 11.72509766 42.55200195 C10.89583939 39.63340376 11.17649482 37.88745964 12 35 C13.65 34.67 15.3 34.34 17 34 C20.83276105 39.70693055 23.71254731 45.52065644 26.3125 51.875 C26.85100586 53.15503906 26.85100586 53.15503906 27.40039062 54.4609375 C30 60.71980655 30 60.71980655 30 63 C30.79069382 63.06850662 31.58138763 63.13701324 32.39604187 63.20759583 C39.85674051 63.85626342 47.31621706 64.51707692 54.77463055 65.19147205 C58.60888542 65.53773825 62.44343612 65.87933523 66.27905273 66.21020508 C69.98240754 66.52983991 73.68446935 66.86181291 77.38596535 67.20227623 C78.7965182 67.32984788 80.20747716 67.45301039 81.61881065 67.57163429 C83.59936035 67.73886912 85.57842533 67.9234116 87.55737305 68.10864258 C88.68322311 68.2085701 89.80907318 68.30849762 90.96903992 68.41145325 C95.22900448 69.23864603 97.95620348 70.95620348 101 74 C101.37109375 75.98828125 101.37109375 75.98828125 101.4375 78.3125 C101.47746094 79.07175781 101.51742187 79.83101563 101.55859375 80.61328125 C100.72734357 84.16498655 98.68884763 85.58040099 96 88 C94.9434066 89.00320482 93.88880654 90.00851215 92.8359375 91.015625 C86.68185001 96.78641293 80.45430523 102.33186228 73.8671875 107.609375 C68.02397591 112.48137158 62.47604294 117.71992834 57 123 C56.06115967 123.62124756 55.12231934 124.24249512 54.1550293 124.88256836 C51.56167894 128.63406838 51.85423445 129.41466599 52.62573242 133.76489258 C53.17307811 136.14834128 53.75187719 138.52470166 54.35546875 140.89453125 C54.80721728 142.82198601 55.25895804 144.74944263 55.71024799 146.67700481 C56.35013411 149.37696301 57.01672829 152.07005957 57.6829834 154.76361084 C58.83969673 159.46113199 59.95675413 164.1681979 61.07014465 168.87614441 C61.66508874 171.37982798 62.27114536 173.88090387 62.88969421 176.37886047 C64.33798149 182.37545523 65.59220244 187.82481695 65 194 C62.62899986 197.27755902 61.07802591 198.7010446 57.17138672 199.78442383 C53.3860603 200.04173278 51.70101123 199.29951915 48.3828125 197.51171875 C47.33770508 196.95274902 46.29259766 196.3937793 45.21582031 195.81787109 C40.05004038 192.89770731 34.94362586 189.89816803 29.875 186.8125 C28.79766602 186.16410156 27.72033203 185.51570312 26.61035156 184.84765625 C21.55658282 181.79949416 16.529687 178.71820533 11.5546875 175.54296875 C10.73629395 175.02565186 9.91790039 174.50833496 9.07470703 173.9753418 C7.56478733 173.01709303 6.06259034 172.04652516 4.56982422 171.06176758 C0.87644102 168.62915416 0.87644102 168.62915416 -3.390625 168.21044922 C-6.31895611 169.09651048 -8.65410613 170.30876962 -11.296875 171.8515625 C-12.32651367 172.44888184 -13.35615234 173.04620117 -14.41699219 173.66162109 C-15.51688477 174.30953613 -16.61677734 174.95745117 -17.75 175.625 C-18.88856445 176.28709473 -20.02712891 176.94918945 -21.20019531 177.63134766 C-27.19334763 181.12305088 -33.1436509 184.68077064 -39.0625 188.296875 C-40.74714355 189.32240479 -40.74714355 189.32240479 -42.46582031 190.36865234 C-44.61668261 191.68264181 -46.76211434 193.00557201 -48.90136719 194.33837891 C-50.36558105 195.23435791 -50.36558105 195.23435791 -51.859375 196.1484375 C-52.70983398 196.67614746 -53.56029297 197.20385742 -54.43652344 197.74755859 C-57.35174354 199.17185184 -59.77190269 199.72707208 -63 200 C-66.97472063 198.47126129 -68.61853665 197.57219503 -71 194 C-71.31201798 188.57686418 -70.75344071 183.86662053 -69.57421875 178.54296875 C-69.42596146 177.87332596 -69.27770416 177.20368317 -69.12495422 176.51374817 C-68.81228642 175.11374992 -68.49528178 173.71471359 -68.17407227 172.31665039 C-67.68539419 170.17828538 -67.21801472 168.03597216 -66.75195312 165.89257812 C-66.44397658 164.52575528 -66.13477512 163.15920774 -65.82421875 161.79296875 C-65.54666748 160.5608667 -65.26911621 159.32876465 -64.9831543 158.05932617 C-64.03960184 155.12323087 -63.48412664 153.76806881 -61 152 C-60.34 152 -59.68 152 -59 152 C-58.95758277 149.66705225 -58.95907063 147.33297433 -59 145 C-59.33 144.67 -59.66 144.34 -60 144 C-60.21909812 140.56746271 -60.33194279 137.92757845 -59.1640625 134.6640625 C-58.19815959 131.85496871 -57.71168811 129.9718303 -58 127 C-61.12917044 122.97592285 -64.98094661 120.07585963 -69 117 C-70.28112277 115.88673147 -71.55327915 114.76298296 -72.8125 113.625 C-75.26843638 111.48612098 -77.7403719 109.36668065 -80.21875 107.25390625 C-87.59650973 100.96164978 -94.92661817 94.63632735 -102 88 C-103.37285156 86.7625 -103.37285156 86.7625 -104.7734375 85.5 C-107.14510616 82.83707379 -107.66546011 81.91997439 -107.5625 78.4375 C-107.36415182 75.59450936 -107.05447174 74.10116181 -105.6875 71.5625 C-98.0543012 67.12459372 -87.29371474 67.44163918 -78.67578125 66.7109375 C-77.44836716 66.60278717 -76.22095306 66.49463684 -74.9563446 66.38320923 C-71.07546386 66.04235271 -67.19401381 65.70856194 -63.3125 65.375 C-60.66462112 65.14427398 -58.01688714 64.91193162 -55.36914062 64.6796875 C-48.91321882 64.11442638 -42.45681597 63.55494902 -36 63 C-35.40215698 61.12586426 -35.40215698 61.12586426 -34.79223633 59.21386719 C-31.77062808 50.16283369 -27.85905141 41.43729174 -24.13110352 32.66064453 C-23.16694185 30.38272496 -22.20992733 28.10176731 -21.26000977 25.81787109 C-19.88059824 22.50185436 -18.47993427 19.19556245 -17.07421875 15.890625 C-16.65524826 14.87284973 -16.23627777 13.85507446 -15.80461121 12.80645752 C-12.77214143 5.77338144 -8.964676 -1.86764083 0 0 Z " fill="#FCC64F" transform="translate(131,7)"/>
<path d="M0 0 C2.34375 0.04296875 2.34375 0.04296875 5 1 C6.84375 3.73828125 6.84375 3.73828125 8.5 7.3125 C8.79334229 7.93608398 9.08668457 8.55966797 9.38891602 9.20214844 C10.2832974 11.12491005 11.14633167 13.05885609 12 15 C12.51433594 16.16402344 13.02867187 17.32804687 13.55859375 18.52734375 C17 26.57029037 17 26.57029037 17 29 C17.79069382 29.06850662 18.58138763 29.13701324 19.39604187 29.20759583 C26.85674051 29.85626342 34.31621706 30.51707692 41.77463055 31.19147205 C45.60888542 31.53773825 49.44343612 31.87933523 53.27905273 32.21020508 C56.98240754 32.52983991 60.68446935 32.86181291 64.38596535 33.20227623 C65.7965182 33.32984788 67.20747716 33.45301039 68.61881065 33.57163429 C70.59936035 33.73886912 72.57842533 33.9234116 74.55737305 34.10864258 C76.24614815 34.25853386 76.24614815 34.25853386 77.96903992 34.41145325 C82.22900448 35.23864603 84.95620348 36.95620348 88 40 C88.37109375 41.98828125 88.37109375 41.98828125 88.4375 44.3125 C88.47746094 45.07175781 88.51742187 45.83101562 88.55859375 46.61328125 C87.72734357 50.16498655 85.68884763 51.58040099 83 54 C81.9434066 55.00320482 80.88880654 56.00851215 79.8359375 57.015625 C73.68185001 62.78641293 67.45430523 68.33186228 60.8671875 73.609375 C55.02397591 78.48137158 49.47604294 83.71992834 44 89 C43.06115967 89.62124756 42.12231934 90.24249512 41.1550293 90.88256836 C38.56167894 94.63406838 38.85423445 95.41466599 39.62573242 99.76489258 C40.17307811 102.14834128 40.75187719 104.52470166 41.35546875 106.89453125 C41.80721728 108.82198601 42.25895804 110.74944263 42.71024799 112.67700481 C43.35013411 115.37696301 44.01672829 118.07005957 44.6829834 120.76361084 C45.83969673 125.46113199 46.95675413 130.1681979 48.07014465 134.87614441 C48.66508874 137.37982798 49.27114536 139.88090387 49.88969421 142.37886047 C51.33798149 148.37545523 52.59220244 153.82481695 52 160 C49.62899986 163.27755902 48.07802591 164.7010446 44.17138672 165.78442383 C40.3860603 166.04173278 38.70101123 165.29951915 35.3828125 163.51171875 C34.33770508 162.95274902 33.29259766 162.3937793 32.21582031 161.81787109 C27.05004038 158.89770731 21.94362586 155.89816803 16.875 152.8125 C15.79766602 152.16410156 14.72033203 151.51570312 13.61035156 150.84765625 C8.55658282 147.79949416 3.529687 144.71820533 -1.4453125 141.54296875 C-2.26370605 141.02565186 -3.08209961 140.50833496 -3.92529297 139.9753418 C-5.43521267 139.01709303 -6.93740966 138.04652516 -8.43017578 137.06176758 C-12.12355898 134.62915416 -12.12355898 134.62915416 -16.390625 134.21044922 C-19.31895611 135.09651048 -21.65410613 136.30876962 -24.296875 137.8515625 C-25.84133301 138.7475415 -25.84133301 138.7475415 -27.41699219 139.66162109 C-29.06683105 140.63349365 -29.06683105 140.63349365 -30.75 141.625 C-31.88856445 142.28709473 -33.02712891 142.94918945 -34.20019531 143.63134766 C-40.19334763 147.12305088 -46.1436509 150.68077064 -52.0625 154.296875 C-53.1855957 154.98056152 -54.30869141 155.66424805 -55.46582031 156.36865234 C-57.61668261 157.68264181 -59.76211434 159.00557201 -61.90136719 160.33837891 C-63.36558105 161.23435791 -63.36558105 161.23435791 -64.859375 162.1484375 C-65.70983398 162.67614746 -66.56029297 163.20385742 -67.43652344 163.74755859 C-70.35174354 165.17185184 -72.77190269 165.72707208 -76 166 C-79.97472063 164.47126129 -81.61853665 163.57219503 -84 160 C-84.31201798 154.57686418 -83.75344071 149.86662053 -82.57421875 144.54296875 C-82.42596146 143.87332596 -82.27770416 143.20368317 -82.12495422 142.51374817 C-81.81228642 141.11374992 -81.49528178 139.71471359 -81.17407227 138.31665039 C-80.68539419 136.17828538 -80.21801472 134.03597216 -79.75195312 131.89257812 C-79.44397658 130.52575528 -79.13477512 129.15920774 -78.82421875 127.79296875 C-78.54666748 126.5608667 -78.26911621 125.32876465 -77.9831543 124.05932617 C-77.0397994 121.12384562 -76.3948517 119.85825643 -74 118 C-72.35 118.66 -70.7 119.32 -69 120 C-68.83950615 125.08708176 -69.38054654 129.51270924 -70.53125 134.46484375 C-70.68662231 135.14301651 -70.84199463 135.82118927 -71.0020752 136.51991272 C-71.49427257 138.66082609 -71.99693616 140.79911692 -72.5 142.9375 C-72.83793784 144.39892725 -73.17518406 145.86051462 -73.51171875 147.32226562 C-74.333163 150.88339555 -75.16400441 154.44225435 -76 158 C-61.64177613 149.78246665 -47.34964575 141.47755973 -33.18774414 132.92553711 C-31.28779909 131.77827288 -29.38508631 130.63557352 -27.47900391 129.49853516 C-25.95443287 128.57694593 -24.44268622 127.63320265 -22.95458984 126.65380859 C-20.20056819 124.8933121 -18.51088251 123.96589659 -15.20214844 124.18676758 C-11.53235661 125.11876488 -8.84786248 126.55926227 -5.59765625 128.5 C-5.00270355 128.851763 -4.40775085 129.203526 -3.79476929 129.56594849 C-1.87858686 130.70178428 0.0294055 131.85063917 1.9375 133 C3.25528739 133.78451609 4.57356718 134.56820564 5.89233398 135.35107422 C9.6015651 137.55635764 13.3013606 139.77700005 17 142 C18.6065524 142.96130264 20.2132803 143.92231217 21.8203125 144.8828125 C24.07298626 146.23070341 26.32128354 147.58480901 28.56640625 148.9453125 C33.67407241 152.02549547 38.84416524 155.00148195 44 158 C43.82460693 157.22325928 43.64921387 156.44651855 43.46850586 155.64624023 C43.21979736 154.54481689 42.97108887 153.44339355 42.71484375 152.30859375 C42.43455322 151.06787109 42.1542627 149.82714844 41.86547852 148.54882812 C41.24098191 145.78349146 40.61793225 143.01783378 39.99584961 140.25195312 C38.50772127 133.64090591 37.01293039 127.03182708 35.47612 120.43190002 C34.82381116 117.62873933 34.17699467 114.82432351 33.5305481 112.01980591 C33.2206877 110.68264019 32.90812331 109.34609794 32.59274292 108.01022339 C32.14993444 106.13344093 31.71735842 104.25425331 31.28515625 102.375 C31.03644775 101.31023437 30.78773926 100.24546875 30.53149414 99.1484375 C29.94530109 95.67597743 29.7773856 92.51499193 30 89 C32.01953125 86.4453125 32.01953125 86.4453125 34.8125 84.125 C35.31096436 83.70065674 35.80942871 83.27631348 36.32299805 82.83911133 C37.86445317 81.53625804 39.42728401 80.26485883 41 79 C41.886875 78.27941406 42.77375 77.55882813 43.6875 76.81640625 C45.47302068 75.36832772 47.26087252 73.92311987 49.05078125 72.48046875 C53.10289035 69.07240348 56.93554576 65.45001351 60.78369141 61.81518555 C65.26691775 57.60635396 69.91261451 53.74623894 74.79296875 50 C77.15295666 47.86139149 78.42518223 45.74598087 80 43 C78.8749707 42.95101562 77.74994141 42.90203125 76.59082031 42.8515625 C65.16644219 42.32092619 53.81218795 41.41770456 42.43408203 40.27050781 C39.71040154 39.99600918 36.98613855 39.72798988 34.26171875 39.4609375 C32.50256783 39.28682509 30.74345183 39.11235936 28.984375 38.9375 C28.18328308 38.85830322 27.38219116 38.77910645 26.55682373 38.69750977 C25.06276036 38.5463708 23.5692964 38.38913751 22.07662964 38.22477722 C20.08719405 38.009438 18.09410041 37.82874352 16.10107422 37.6496582 C13 37 13 37 11.41162109 35.56323242 C11.07727051 34.93779541 10.74291992 34.3123584 10.3984375 33.66796875 C10.00495117 32.94528809 9.61146484 32.22260742 9.20605469 31.47802734 C8.80805664 30.66027832 8.41005859 29.8425293 8 29 C7.55817383 28.09846191 7.11634766 27.19692383 6.66113281 26.26806641 C5.26128581 23.30447572 3.93575281 20.31646869 2.625 17.3125 C2.16222656 16.29349609 1.69945312 15.27449219 1.22265625 14.22460938 C0.57490234 12.74637695 0.57490234 12.74637695 -0.0859375 11.23828125 C-0.4782959 10.35180908 -0.8706543 9.46533691 -1.27490234 8.55200195 C-2.11036268 5.61157538 -1.88493972 3.89965037 -1 1 C-0.67 0.67 -0.34 0.34 0 0 Z " fill="#030301" transform="translate(144,41)"/>
<path d="M0 0 C5.24649842 3.63219121 7.50165894 7.15295066 9.875 13 C10.18179688 13.69867188 10.48859375 14.39734375 10.8046875 15.1171875 C12.37471762 18.8319909 13.51356085 21.89151319 13 26 C12.505 26.495 12.505 26.495 12 27 C10.02 27 8.04 27 6 27 C3.36 21.06 0.72 15.12 -2 9 C-2.66 9 -3.32 9 -4 9 C-4.3746489 9.88084259 -4.3746489 9.88084259 -4.75686646 10.77947998 C-7.38092453 16.94687633 -10.01027769 23.11199611 -12.64257812 29.27587891 C-13.62144951 31.56990721 -14.59901478 33.86449333 -15.57519531 36.15966797 C-16.98671524 39.4777501 -18.40307793 42.79373038 -19.8203125 46.109375 C-20.24869415 47.11925476 -20.67707581 48.12913452 -21.11843872 49.1696167 C-22.38525477 52.12597647 -23.68271638 55.06579494 -25 58 C-25.48901794 59.10186646 -25.97803589 60.20373291 -26.48187256 61.33898926 C-26.98656067 62.42111694 -27.49124878 63.50324463 -28.01123047 64.61816406 C-28.46335907 65.60141663 -28.91548767 66.58466919 -29.38131714 67.59771729 C-31.34737237 70.51553437 -32.64017546 71.0965676 -36 72 C-38.27790833 72.38563538 -38.27790833 72.38563538 -40.62817383 72.57836914 C-41.51712845 72.65507339 -42.40608307 72.73177765 -43.32197571 72.81080627 C-44.27404404 72.88484177 -45.22611237 72.95887726 -46.20703125 73.03515625 C-47.20522385 73.11873886 -48.20341644 73.20232147 -49.2318573 73.28843689 C-52.42485012 73.55378234 -55.61861863 73.80809873 -58.8125 74.0625 C-60.91867638 74.23694835 -63.02479694 74.41207195 -65.13085938 74.58789062 C-76.41366122 75.52081066 -87.69676483 76.35740384 -99 77 C-97.28940044 80.02661617 -95.75850885 82.51304617 -93.06640625 84.7265625 C-92.50606689 85.19537842 -91.94572754 85.66419434 -91.3684082 86.1472168 C-90.47448364 86.87871948 -90.47448364 86.87871948 -89.5625 87.625 C-88.29535309 88.68438018 -87.02975512 89.74561553 -85.765625 90.80859375 C-85.13205078 91.34081543 -84.49847656 91.87303711 -83.84570312 92.42138672 C-81.09919901 94.77044698 -78.45460605 97.2224085 -75.8125 99.6875 C-72.10269509 103.13437639 -68.31249687 106.43855443 -64.375 109.625 C-63.04662109 110.7078125 -63.04662109 110.7078125 -61.69140625 111.8125 C-59.83280178 113.32312192 -57.964985 114.82245488 -56.08984375 116.3125 C-49.24174225 122.01443542 -49.24174225 122.01443542 -48.1875 126.3125 C-48.455625 127.529375 -48.72375 128.74625 -49 130 C-49.21011719 130.98871094 -49.42023438 131.97742188 -49.63671875 132.99609375 C-51.51433121 141.27149682 -51.51433121 141.27149682 -54 145 C-56.5625 145.25 -56.5625 145.25 -59 145 C-60.65187478 143.34812522 -60.18386455 141.35939535 -60.2109375 139.1484375 C-60 137 -60 137 -59.1640625 134.6640625 C-58.19815959 131.85496871 -57.71168811 129.9718303 -58 127 C-61.12917044 122.97592285 -64.98094661 120.07585963 -69 117 C-70.28112277 115.88673147 -71.55327915 114.76298296 -72.8125 113.625 C-75.26843638 111.48612098 -77.7403719 109.36668065 -80.21875 107.25390625 C-87.59650973 100.96164978 -94.92661817 94.63632735 -102 88 C-103.37285156 86.7625 -103.37285156 86.7625 -104.7734375 85.5 C-107.14510616 82.83707379 -107.66546011 81.91997439 -107.5625 78.4375 C-107.36415182 75.59450936 -107.05447174 74.10116181 -105.6875 71.5625 C-98.0543012 67.12459372 -87.29371474 67.44163918 -78.67578125 66.7109375 C-77.44836716 66.60278717 -76.22095306 66.49463684 -74.9563446 66.38320923 C-71.07546386 66.04235271 -67.19401381 65.70856194 -63.3125 65.375 C-60.66462112 65.14427398 -58.01688714 64.91193162 -55.36914062 64.6796875 C-48.91321882 64.11442638 -42.45681597 63.55494902 -36 63 C-35.40215698 61.12586426 -35.40215698 61.12586426 -34.79223633 59.21386719 C-31.77062808 50.16283369 -27.85905141 41.43729174 -24.13110352 32.66064453 C-23.16694185 30.38272496 -22.20992733 28.10176731 -21.26000977 25.81787109 C-19.88059824 22.50185436 -18.47993427 19.19556245 -17.07421875 15.890625 C-16.65524826 14.87284973 -16.23627777 13.85507446 -15.80461121 12.80645752 C-12.77214143 5.77338144 -8.964676 -1.86764083 0 0 Z " fill="#030200" transform="translate(131,7)"/>
<path d="M0 0 C3.10352458 1.60923497 5.21701424 3.00347267 7.375 5.75 C8.64027039 10.30497339 8.88606944 14.28476466 6.72265625 18.47265625 C-1.14756228 30.01921269 -12.65881305 40.6015172 -23.3671875 49.5625 C-25.25991267 51.16615562 -25.25991267 51.16615562 -27.625 54 C-30 56 -30 56 -33.3125 55.8125 C-34.199375 55.544375 -35.08625 55.27625 -36 55 C-37.54211005 50.31882493 -35.63336259 47.185784 -33.625 42.9375 C-33.2635791 42.15181641 -32.9021582 41.36613281 -32.52978516 40.55664062 C-31.75915458 38.88787694 -30.98278223 37.22175476 -30.20117188 35.55810547 C-29.0117469 33.02501708 -27.84051701 30.48413872 -26.671875 27.94140625 C-12.58795848 -2.50756145 -12.58795848 -2.50756145 0 0 Z " fill="#020201" transform="translate(205,5)"/>
<path d="M0 0 C3.69459299 2.98995412 5.47367926 5.91822207 7.65625 10.078125 C8.06866943 10.84213623 8.48108887 11.60614746 8.90600586 12.39331055 C12.70634954 19.56766602 16.16830279 26.9066106 19.59375 34.265625 C20.38096436 35.95582764 20.38096436 35.95582764 21.18408203 37.68017578 C21.91473877 39.27901611 21.91473877 39.27901611 22.66015625 40.91015625 C23.09400635 41.85866455 23.52785645 42.80717285 23.97485352 43.78442383 C24.99922152 46.37221367 25.68902482 48.692469 26.03125 51.453125 C24.90625 53.328125 24.90625 53.328125 23.03125 54.453125 C18.32010903 54.16711981 16.36562269 52.19360113 13.21875 48.828125 C10.32778597 45.8140509 7.48136084 42.88708893 4.28125 40.203125 C0.26360845 36.7617845 -3.47442306 33.06088943 -7.21875 29.328125 C-7.82170898 28.72967773 -8.42466797 28.13123047 -9.04589844 27.51464844 C-18.69139333 17.83687637 -18.69139333 17.83687637 -19.28125 10.640625 C-19.22497352 6.2751777 -17.8328892 3.79462073 -14.96875 0.453125 C-10.49601868 -3.06116389 -4.74624978 -2.47304594 0 0 Z " fill="#020201" transform="translate(61.96875,6.546875)"/>
<path d="M0 0 C0.495 0.495 0.495 0.495 1 1 C0.97753906 4.30053711 0.97753906 4.30053711 0 8 C-2.28955992 9.81895436 -4.06484865 10.94331961 -6.640625 12.19140625 C-7.31865173 12.54460434 -7.99667847 12.89780243 -8.69525146 13.26170349 C-10.86868465 14.3862196 -13.05828468 15.47412507 -15.25 16.5625 C-16.67825438 17.29655406 -18.10535233 18.03286284 -19.53125 18.77148438 C-23.66298785 20.89861781 -27.82292634 22.96351583 -32 25 C-32.95170578 25.46519547 -32.95170578 25.46519547 -33.92263794 25.93978882 C-47.84028032 32.6979509 -47.84028032 32.6979509 -54 31 C-57.05250228 29.23819636 -59.39729824 27.20540353 -61 24 C-61.2734375 21.828125 -61.2734375 21.828125 -61.375 19.25 C-61.42398438 18.40953125 -61.47296875 17.5690625 -61.5234375 16.703125 C-60.78710633 12.90057897 -58.87079772 10.47573382 -56 8 C-46.46977236 3.71076306 -34.89877514 3.15238478 -24.625 1.75 C-23.34181885 1.57452637 -22.0586377 1.39905273 -20.73657227 1.21826172 C-6.63567582 -0.59642413 -6.63567582 -0.59642413 0 0 Z " fill="#020201" transform="translate(61,136)"/>
<path d="M0 0 C7.11219652 0.07459904 14.10802001 1.14772493 21.13110352 2.1784668 C23.45518069 2.51811904 25.78101034 2.84278702 28.10742188 3.16601562 C50.78040152 6.38695384 50.78040152 6.38695384 55.21484375 10.76953125 C57.64104643 15.37095013 58.08498559 19.10886706 57.02734375 24.20703125 C55.32302548 27.32117161 53.25114976 29.59512824 50.02734375 31.20703125 C42.22066957 31.91602831 37.23322684 29.98155706 30.33984375 26.45703125 C29.35612793 25.9662207 28.37241211 25.47541016 27.35888672 24.96972656 C25.29343357 23.93092223 23.23293149 22.88222096 21.17724609 21.82421875 C18.02240362 20.20449494 14.84818319 18.62790139 11.671875 17.05078125 C9.66370892 16.02275906 7.65713771 14.99161415 5.65234375 13.95703125 C4.70141846 13.4868457 3.75049316 13.01666016 2.77075195 12.53222656 C-3.70048869 9.09477243 -3.70048869 9.09477243 -5.13671875 4.41015625 C-4.89647945 -0.28023016 -4.8668961 0.25363372 0 0 Z " fill="#010100" transform="translate(198.97265625,135.79296875)"/>
<path d="M0 0 C3.125 0.375 3.125 0.375 6 1 C8.21715455 10.15847997 10.04118767 19.33721165 11.625 28.625 C11.8415625 29.85734375 12.058125 31.0896875 12.28125 32.359375 C16.09386864 54.52904634 16.09386864 54.52904634 12 61 C8.76263107 63.8694861 6.79719042 64.9003512 2.5 65.4375 C-1.40950424 64.94881197 -3.74246106 64.22104927 -7 62 C-11.52992716 55.65810198 -10.34141822 48.04732721 -9.13650513 40.72241211 C-9.01153656 40.00964111 -8.88656799 39.29687012 -8.7578125 38.5625 C-8.62937958 37.79752197 -8.50094666 37.03254395 -8.36862183 36.24438477 C-8.09797847 34.64052985 -7.82386204 33.03725739 -7.54638672 31.43457031 C-7.12622571 29.00708159 -6.71646873 26.57801773 -6.30859375 24.1484375 C-2.67960019 2.67960019 -2.67960019 2.67960019 0 0 Z " fill="#020201" transform="translate(126,186)"/>
<path d="M0 0 C7.03507823 0.30991534 13.76790011 1.47438706 20.625 3 C21.43114746 3.17821289 22.23729492 3.35642578 23.06787109 3.54003906 C28.86668717 4.86668717 28.86668717 4.86668717 30 6 C30.125 9 30.125 9 30 12 C29 13 29 13 26.27270508 13.20849609 C22.77133092 12.98543205 20.74623098 12.24050102 17.63671875 10.6640625 C16.66798828 10.17679688 15.69925781 9.68953125 14.70117188 9.1875 C13.2094043 8.4140625 13.2094043 8.4140625 11.6875 7.625 C10.67365234 7.11710938 9.65980469 6.60921875 8.61523438 6.0859375 C1.14048812 2.28097625 1.14048812 2.28097625 0 0 Z " fill="#EBDE78" transform="translate(218,146)"/>
<path d="M0 0 C-4.15670967 3.66186328 -8.52713444 5.93104715 -13.5 8.25 C-14.61955078 8.79527344 -14.61955078 8.79527344 -15.76171875 9.3515625 C-22.71682597 12.62600236 -22.71682597 12.62600236 -27 12 C-28 11 -28 11 -28.25 8.0625 C-28.1675 7.051875 -28.085 6.04125 -28 5 C-20.43227307 -0.04515129 -8.90424346 -0.09455834 0 0 Z " fill="#F0E27A" transform="translate(36,147)"/>
<path d="M0 0 C0.33 0 0.66 0 1 0 C4.58165209 21.60739583 4.58165209 21.60739583 4 31 C1.125 31.625 1.125 31.625 -2 32 C-4 30 -4 30 -4.046875 26.98046875 C-3.94890625 25.72878906 -3.8509375 24.47710937 -3.75 23.1875 C-3.6984375 22.52403564 -3.646875 21.86057129 -3.59375 21.17700195 C-2.18620257 4.37240514 -2.18620257 4.37240514 0 0 Z " fill="#F2E47B" transform="translate(128,211)"/>
<path d="M0 0 C4.70588235 0.70588235 4.70588235 0.70588235 6 2 C6.43583075 5.22838871 6.31836293 6.57227037 4.34765625 9.2199707 C3.59355469 9.94788818 2.83945313 10.67580566 2.0625 11.42578125 C1.25039062 12.22177734 0.43828125 13.01777344 -0.3984375 13.83789062 C-1.25695312 14.65451172 -2.11546875 15.47113281 -3 16.3125 C-3.85851562 17.14845703 -4.71703125 17.98441406 -5.6015625 18.84570312 C-7.72360146 20.90879656 -9.85641027 22.95934566 -12 25 C-12.33 24.34 -12.66 23.68 -13 23 C-11.84843228 20.34574055 -10.63872898 17.81511533 -9.3125 15.25 C-8.95994141 14.54617187 -8.60738281 13.84234375 -8.24414062 13.1171875 C-3.20528119 3.20528119 -3.20528119 3.20528119 0 0 Z " fill="#F5E67C" transform="translate(199,13)"/>
<path d="M0 0 C2.95443286 0.17017533 4.48698143 0.48067899 6.58984375 2.609375 C10.65884038 9.07259283 14.35256869 15.82000147 17 23 C16.67 23.66 16.34 24.32 16 25 C12.97969464 22.12472999 9.98765578 19.22165131 7 16.3125 C6.14148437 15.49587891 5.28296875 14.67925781 4.3984375 13.83789062 C3.58632813 13.04189453 2.77421875 12.24589844 1.9375 11.42578125 C1.18339844 10.69786377 0.42929687 9.96994629 -0.34765625 9.2199707 C-2 7 -2 7 -2.37109375 4.34838867 C-2 2 -2 2 0 0 Z " fill="#F5E67C" transform="translate(53,13)"/>
</svg>
